<svg width="38" height="38" viewBox="0 0 38 38" fill="none" xmlns="http://www.w3.org/2000/svg">
<g clip-path="url(#clip0_1218_5256)">
<path d="M19 38C29.4934 38 38 29.4934 38 19C38 8.50659 29.4934 0 19 0C8.50659 0 0 8.50659 0 19C0 29.4934 8.50659 38 19 38Z" fill="#F4B731"/>
<path fill-rule="evenodd" clip-rule="evenodd" d="M11.0164 9.5H18.7969C23.5291 9.5 27.1166 12.0128 28.4513 15.6679H30.875V17.8778H28.9619C28.9988 18.2269 29.0178 18.5832 29.0178 18.9442V18.9988C29.0178 19.4049 28.994 19.8063 28.9465 20.1982H30.875V22.4069H28.405C27.0358 26.0122 23.4769 28.5 18.7981 28.5H11.0164V22.4069H8.3125V20.1982H11.0164V17.8778H8.3125V15.6691H11.0164V9.5ZM13.1907 22.4069V26.5181H18.7957C22.2561 26.5181 24.8259 24.871 26.0217 22.4069H13.1907ZM26.6879 20.1982H13.1907V17.8778H26.6926C26.7413 18.2424 26.7674 18.6164 26.7674 18.9988V19.0523C26.7674 19.4429 26.7401 19.8241 26.6879 20.197V20.1982ZM18.7981 11.4772C22.2727 11.4772 24.8508 13.1682 26.0395 15.6667H13.1907V11.4784H18.7957L18.7981 11.4772Z" fill="white"/>
</g>
<defs>
<clipPath id="clip0_1218_5256">
<rect width="38" height="38" fill="white"/>
</clipPath>
</defs>
</svg>
