<svg width="38" height="38" viewBox="0 0 38 38" fill="none" xmlns="http://www.w3.org/2000/svg">
<g clip-path="url(#clip0_1218_5124)">
<path d="M19 38C29.4934 38 38 29.4934 38 19C38 8.50659 29.4934 0 19 0C8.50659 0 0 8.50659 0 19C0 29.4934 8.50659 38 19 38Z" fill="#2874CA"/>
<path d="M15.4352 32.2116C15.4352 32.6618 15.0861 32.9191 14.6543 32.7813C8.91199 30.9437 4.75 25.5598 4.75 19.202C4.75 12.8441 8.91199 7.46018 14.6634 5.62266C15.0953 5.48484 15.4444 5.7421 15.4444 6.19229V7.2948C15.4444 7.598 15.2147 7.93794 14.9299 8.039C10.382 9.71115 7.12041 14.0845 7.12041 19.202C7.12041 24.3195 10.3728 28.6928 14.9207 30.3557C15.2055 30.4568 15.4352 30.8059 15.4352 31.1091V32.2116Z" fill="white"/>
<path d="M20.1944 28.105C20.1944 28.4357 19.9279 28.7021 19.5972 28.7021H18.412C18.0812 28.7021 17.8148 28.4357 17.8148 28.105V26.2307C15.2239 25.8815 13.956 24.4299 13.6069 22.4546C13.5517 22.1146 13.8182 21.8114 14.1581 21.8114H15.5087C15.7935 21.8114 16.0324 22.0136 16.0875 22.2892C16.3356 23.4652 17.0247 24.3748 19.0919 24.3748C20.6262 24.3748 21.7103 23.5203 21.7103 22.2433C21.7103 20.957 21.0672 20.4792 18.8162 20.1117C15.4995 19.6615 13.9284 18.6509 13.9284 16.0508C13.9284 14.0387 15.4536 12.4768 17.8056 12.1369V10.2993C17.8056 9.96859 18.072 9.70215 18.4028 9.70215H19.588C19.9188 9.70215 20.1852 9.96859 20.1852 10.2993V12.192C22.0962 12.5319 23.3182 13.6161 23.7132 15.426C23.7867 15.766 23.5203 16.0875 23.1712 16.0875H21.9217C21.6552 16.0875 21.4255 15.9038 21.352 15.6465C21.0121 14.4981 20.1944 14.002 18.7703 14.002C17.1992 14.002 16.3815 14.7553 16.3815 15.8303C16.3815 16.9604 16.8501 17.5208 19.2572 17.8699C22.5189 18.3201 24.2094 19.2481 24.2094 22.0227C24.2094 24.1359 22.6475 25.8448 20.1852 26.2307L20.1944 28.105Z" fill="white"/>
<path d="M23.3456 32.7813C22.9138 32.9191 22.5647 32.6618 22.5647 32.2116V31.0999C22.5647 30.7692 22.7668 30.466 23.0792 30.3465C27.6271 28.6836 30.8795 24.3103 30.8795 19.1928C30.8795 14.0753 27.6271 9.70196 23.0792 8.039C22.7944 7.93794 22.5647 7.58881 22.5647 7.2948V6.19229C22.5647 5.7421 22.9138 5.48484 23.3456 5.62266C29.0971 7.46018 33.2591 12.8441 33.2591 19.202C33.2499 25.5598 29.0879 30.9437 23.3456 32.7813Z" fill="white"/>
</g>
<defs>
<clipPath id="clip0_1218_5124">
<rect width="38" height="38" fill="white"/>
</clipPath>
</defs>
</svg>
