<svg width="38" height="38" viewBox="0 0 38 38" fill="none" xmlns="http://www.w3.org/2000/svg">
<path d="M30.985 7.97503L29.9417 9.01841C35.1029 14.6631 35.1029 23.3093 29.9417 28.954L30.985 29.9974C36.7271 23.7684 36.7271 14.1797 30.985 7.95068V7.97503Z" fill="#5A5564"/>
<path d="M9.04258 8.06528C14.6873 2.90401 23.3334 2.90401 28.9781 8.06528L30.0215 7.02189C23.7925 1.27981 14.2038 1.27981 7.97485 7.02189L9.04258 8.06528Z" fill="#5A5564"/>
<path d="M8.06528 28.9641C2.91097 23.3229 2.91097 14.6802 8.06528 9.03899L7.02189 7.99561C1.27981 14.2246 1.27981 23.8133 7.02189 30.0423L8.06528 28.9641Z" fill="#5A5564"/>
<path d="M28.9643 29.9277C23.3196 35.089 14.6734 35.089 9.02873 29.9277L7.98535 30.9711C14.2143 36.7132 23.803 36.7132 30.032 30.9711L28.9643 29.9277Z" fill="#5A5564"/>
<path d="M25.5872 15.5188C25.3786 13.3416 23.5005 12.6112 21.125 12.3886V9.39062H19.2887V12.333C18.8053 12.333 18.3114 12.333 17.821 12.333V9.39062H15.9986V12.4095H12.2737V14.3745C12.2737 14.3745 13.6301 14.3502 13.6092 14.3745C14.117 14.3189 14.5796 14.6736 14.6526 15.1814V23.445C14.6422 23.6189 14.5622 23.7789 14.43 23.8936C14.3013 24.0084 14.1309 24.0675 13.957 24.0536C13.9814 24.0745 12.6215 24.0536 12.6215 24.0536L12.2737 26.2482H15.9638V29.3158H17.8001V26.2934H19.2678V29.3018H21.1077V26.2691C24.21 26.0813 26.3733 25.3161 26.6445 22.412C26.8637 20.0749 25.7646 19.0315 24.0083 18.6106C25.076 18.0855 25.7368 17.1117 25.5872 15.5188ZM23.0136 22.0503C23.0136 24.3319 19.1044 24.071 17.8593 24.071V20.0227C19.1044 20.0262 23.0136 19.6679 23.0136 22.0503ZM22.1615 16.3465C22.1615 18.4333 18.8992 18.1794 17.8627 18.1794V14.4997C18.8992 14.4997 22.1615 14.1728 22.1615 16.3465Z" fill="#F09242"/>
<path d="M18.9965 38C8.50357 37.9965 -0.00347688 29.4895 1.06604e-06 18.9965C0.00347901 8.50357 8.51052 -0.00347688 19.0035 1.06604e-06C29.493 0.00347901 37.9965 8.50705 38 18.9965C38.0035 29.4895 29.4964 37.9965 19.0035 38C19 38 19 38 18.9965 38ZM18.9965 1.4816C9.32784 1.48856 1.49552 9.3348 1.50247 19.0035C1.50943 28.6722 9.35567 36.5045 19.0243 36.4975C28.6861 36.4906 36.5149 28.6582 36.5184 18.9965C36.5219 9.32784 28.6861 1.48508 19.0174 1.4816C19.0104 1.4816 19.0035 1.4816 18.9965 1.4816Z" fill="#282138"/>
</svg>
